<mxfile host="app.diagrams.net" agent="Mozilla/5.0 (Windows NT 10.0; Win64; x64) AppleWebKit/537.36 (KHTML, like Gecko) Chrome/126.0.0.0 Safari/537.36" version="24.7.7">
  <diagram name="第 1 页" id="Ewn76UH4AUdqNXALLnu6">
    <mxGraphModel dx="1147" dy="737" grid="1" gridSize="10" guides="1" tooltips="1" connect="1" arrows="1" fold="1" page="1" pageScale="1" pageWidth="827" pageHeight="1169" math="0" shadow="0">
      <root>
        <mxCell id="0" />
        <mxCell id="1" parent="0" />
        <mxCell id="lt9hTO3qB0-LfBWy4fT1-23" style="edgeStyle=orthogonalEdgeStyle;rounded=0;orthogonalLoop=1;jettySize=auto;html=1;exitX=0.5;exitY=1;exitDx=0;exitDy=0;entryX=0.5;entryY=0;entryDx=0;entryDy=0;" parent="1" source="lt9hTO3qB0-LfBWy4fT1-1" target="lt9hTO3qB0-LfBWy4fT1-2" edge="1">
          <mxGeometry relative="1" as="geometry" />
        </mxCell>
        <mxCell id="lt9hTO3qB0-LfBWy4fT1-1" value="Sass下发请求" style="ellipse;whiteSpace=wrap;html=1;" parent="1" vertex="1">
          <mxGeometry x="60" y="20" width="100" height="50" as="geometry" />
        </mxCell>
        <mxCell id="lt9hTO3qB0-LfBWy4fT1-24" style="edgeStyle=orthogonalEdgeStyle;rounded=0;orthogonalLoop=1;jettySize=auto;html=1;exitX=1;exitY=0.5;exitDx=0;exitDy=0;entryX=0;entryY=0.5;entryDx=0;entryDy=0;" parent="1" source="lt9hTO3qB0-LfBWy4fT1-2" target="lt9hTO3qB0-LfBWy4fT1-3" edge="1">
          <mxGeometry relative="1" as="geometry" />
        </mxCell>
        <mxCell id="lt9hTO3qB0-LfBWy4fT1-26" style="edgeStyle=orthogonalEdgeStyle;rounded=0;orthogonalLoop=1;jettySize=auto;html=1;exitX=0.5;exitY=1;exitDx=0;exitDy=0;entryX=0.5;entryY=0;entryDx=0;entryDy=0;" parent="1" source="lt9hTO3qB0-LfBWy4fT1-2" target="lt9hTO3qB0-LfBWy4fT1-5" edge="1">
          <mxGeometry relative="1" as="geometry" />
        </mxCell>
        <mxCell id="lt9hTO3qB0-LfBWy4fT1-2" value="从Redis中根据key和JobId取出Job" style="rounded=0;whiteSpace=wrap;html=1;" parent="1" vertex="1">
          <mxGeometry x="50" y="110" width="120" height="60" as="geometry" />
        </mxCell>
        <mxCell id="lt9hTO3qB0-LfBWy4fT1-25" style="edgeStyle=orthogonalEdgeStyle;rounded=0;orthogonalLoop=1;jettySize=auto;html=1;exitX=1;exitY=0.5;exitDx=0;exitDy=0;entryX=0;entryY=0.5;entryDx=0;entryDy=0;" parent="1" source="lt9hTO3qB0-LfBWy4fT1-3" target="lt9hTO3qB0-LfBWy4fT1-4" edge="1">
          <mxGeometry relative="1" as="geometry" />
        </mxCell>
        <mxCell id="lt9hTO3qB0-LfBWy4fT1-3" value="有可能任务已过期，需进行判断" style="rounded=0;whiteSpace=wrap;html=1;" parent="1" vertex="1">
          <mxGeometry x="210" y="115" width="120" height="50" as="geometry" />
        </mxCell>
        <mxCell id="lt9hTO3qB0-LfBWy4fT1-4" value="进行JobType和Uid判断" style="rounded=0;whiteSpace=wrap;html=1;" parent="1" vertex="1">
          <mxGeometry x="360" y="122.5" width="130" height="35" as="geometry" />
        </mxCell>
        <mxCell id="lt9hTO3qB0-LfBWy4fT1-27" style="edgeStyle=orthogonalEdgeStyle;rounded=0;orthogonalLoop=1;jettySize=auto;html=1;exitX=0;exitY=0.5;exitDx=0;exitDy=0;entryX=0.5;entryY=1;entryDx=0;entryDy=0;" parent="1" source="lt9hTO3qB0-LfBWy4fT1-15" target="lt9hTO3qB0-LfBWy4fT1-5" edge="1">
          <mxGeometry relative="1" as="geometry">
            <Array as="points">
              <mxPoint x="40" y="435" />
              <mxPoint x="40" y="250" />
              <mxPoint x="110" y="250" />
            </Array>
          </mxGeometry>
        </mxCell>
        <mxCell id="lt9hTO3qB0-LfBWy4fT1-28" style="edgeStyle=orthogonalEdgeStyle;rounded=0;orthogonalLoop=1;jettySize=auto;html=1;exitX=0.5;exitY=1;exitDx=0;exitDy=0;entryX=0;entryY=0.5;entryDx=0;entryDy=0;" parent="1" source="lt9hTO3qB0-LfBWy4fT1-5" target="lt9hTO3qB0-LfBWy4fT1-20" edge="1">
          <mxGeometry relative="1" as="geometry">
            <Array as="points">
              <mxPoint x="110" y="250" />
              <mxPoint x="40" y="250" />
              <mxPoint x="40" y="570" />
            </Array>
          </mxGeometry>
        </mxCell>
        <mxCell id="lt9hTO3qB0-LfBWy4fT1-29" style="edgeStyle=orthogonalEdgeStyle;rounded=0;orthogonalLoop=1;jettySize=auto;html=1;exitX=0.5;exitY=1;exitDx=0;exitDy=0;entryX=0.5;entryY=0;entryDx=0;entryDy=0;" parent="1" source="lt9hTO3qB0-LfBWy4fT1-5" target="lt9hTO3qB0-LfBWy4fT1-6" edge="1">
          <mxGeometry relative="1" as="geometry" />
        </mxCell>
        <mxCell id="lt9hTO3qB0-LfBWy4fT1-5" value="JobStatus可能有三种状态" style="rounded=0;whiteSpace=wrap;html=1;" parent="1" vertex="1">
          <mxGeometry x="32.5" y="200" width="155" height="40" as="geometry" />
        </mxCell>
        <mxCell id="lt9hTO3qB0-LfBWy4fT1-30" style="edgeStyle=orthogonalEdgeStyle;rounded=0;orthogonalLoop=1;jettySize=auto;html=1;exitX=1;exitY=0.5;exitDx=0;exitDy=0;entryX=0;entryY=0.5;entryDx=0;entryDy=0;" parent="1" source="lt9hTO3qB0-LfBWy4fT1-6" target="lt9hTO3qB0-LfBWy4fT1-7" edge="1">
          <mxGeometry relative="1" as="geometry" />
        </mxCell>
        <mxCell id="lt9hTO3qB0-LfBWy4fT1-6" value="FINISHED" style="rounded=0;whiteSpace=wrap;html=1;" parent="1" vertex="1">
          <mxGeometry x="60" y="270" width="100" height="40" as="geometry" />
        </mxCell>
        <mxCell id="lt9hTO3qB0-LfBWy4fT1-31" style="edgeStyle=orthogonalEdgeStyle;rounded=0;orthogonalLoop=1;jettySize=auto;html=1;exitX=1;exitY=0.5;exitDx=0;exitDy=0;entryX=0;entryY=0.5;entryDx=0;entryDy=0;" parent="1" source="lt9hTO3qB0-LfBWy4fT1-7" target="lt9hTO3qB0-LfBWy4fT1-8" edge="1">
          <mxGeometry relative="1" as="geometry" />
        </mxCell>
        <mxCell id="lt9hTO3qB0-LfBWy4fT1-7" value="构建ProcessStatus，设置时间信息，状态" style="rounded=0;whiteSpace=wrap;html=1;" parent="1" vertex="1">
          <mxGeometry x="220" y="260" width="120" height="60" as="geometry" />
        </mxCell>
        <mxCell id="lt9hTO3qB0-LfBWy4fT1-8" value="计算以图搜图的结果数量，并设置到ProcessStatus并返回" style="rounded=0;whiteSpace=wrap;html=1;" parent="1" vertex="1">
          <mxGeometry x="370" y="260" width="120" height="60" as="geometry" />
        </mxCell>
        <mxCell id="lt9hTO3qB0-LfBWy4fT1-11" value="&lt;font style=&quot;font-size: 14px;&quot; face=&quot;Garamond&quot;&gt;calculateResultNum&lt;/font&gt;" style="swimlane;fontStyle=0;childLayout=stackLayout;horizontal=1;startSize=26;fillColor=none;horizontalStack=0;resizeParent=1;resizeParentMax=0;resizeLast=0;collapsible=1;marginBottom=0;whiteSpace=wrap;html=1;" parent="1" vertex="1">
          <mxGeometry x="580" y="220" width="170" height="130" as="geometry" />
        </mxCell>
        <mxCell id="lt9hTO3qB0-LfBWy4fT1-13" value="车辆图搜是异步任务，完成后将结果存到Redis中。&lt;div&gt;首先从Redis中根据Key和JobID取出任务结果，OpsForZSet.card计算数量，取该数量与TopN的最小值&lt;/div&gt;" style="text;strokeColor=none;fillColor=none;align=left;verticalAlign=top;spacingLeft=4;spacingRight=4;overflow=hidden;rotatable=0;points=[[0,0.5],[1,0.5]];portConstraint=eastwest;whiteSpace=wrap;html=1;" parent="lt9hTO3qB0-LfBWy4fT1-11" vertex="1">
          <mxGeometry y="26" width="170" height="104" as="geometry" />
        </mxCell>
        <mxCell id="lt9hTO3qB0-LfBWy4fT1-32" style="edgeStyle=orthogonalEdgeStyle;rounded=0;orthogonalLoop=1;jettySize=auto;html=1;exitX=1;exitY=0.5;exitDx=0;exitDy=0;entryX=0;entryY=0.5;entryDx=0;entryDy=0;" parent="1" source="lt9hTO3qB0-LfBWy4fT1-15" target="lt9hTO3qB0-LfBWy4fT1-16" edge="1">
          <mxGeometry relative="1" as="geometry" />
        </mxCell>
        <mxCell id="lt9hTO3qB0-LfBWy4fT1-15" value="RUNNING" style="rounded=0;whiteSpace=wrap;html=1;" parent="1" vertex="1">
          <mxGeometry x="60" y="415" width="100" height="40" as="geometry" />
        </mxCell>
        <mxCell id="lt9hTO3qB0-LfBWy4fT1-33" style="edgeStyle=orthogonalEdgeStyle;rounded=0;orthogonalLoop=1;jettySize=auto;html=1;exitX=1;exitY=0.5;exitDx=0;exitDy=0;entryX=0;entryY=0.5;entryDx=0;entryDy=0;" parent="1" source="lt9hTO3qB0-LfBWy4fT1-16" target="lt9hTO3qB0-LfBWy4fT1-17" edge="1">
          <mxGeometry relative="1" as="geometry" />
        </mxCell>
        <mxCell id="lt9hTO3qB0-LfBWy4fT1-34" style="edgeStyle=orthogonalEdgeStyle;rounded=0;orthogonalLoop=1;jettySize=auto;html=1;exitX=1;exitY=0.5;exitDx=0;exitDy=0;entryX=0;entryY=0.5;entryDx=0;entryDy=0;" parent="1" source="lt9hTO3qB0-LfBWy4fT1-16" target="lt9hTO3qB0-LfBWy4fT1-19" edge="1">
          <mxGeometry relative="1" as="geometry" />
        </mxCell>
        <mxCell id="lt9hTO3qB0-LfBWy4fT1-16" value="计算任务进度（根据Redis搜索任务表中任务数量计算，已完成的数量/总数量）" style="rounded=0;whiteSpace=wrap;html=1;" parent="1" vertex="1">
          <mxGeometry x="210" y="405" width="120" height="60" as="geometry" />
        </mxCell>
        <mxCell id="lt9hTO3qB0-LfBWy4fT1-35" style="edgeStyle=orthogonalEdgeStyle;rounded=0;orthogonalLoop=1;jettySize=auto;html=1;exitX=1;exitY=0.5;exitDx=0;exitDy=0;entryX=0;entryY=0.5;entryDx=0;entryDy=0;" parent="1" source="lt9hTO3qB0-LfBWy4fT1-17" target="lt9hTO3qB0-LfBWy4fT1-18" edge="1">
          <mxGeometry relative="1" as="geometry" />
        </mxCell>
        <mxCell id="lt9hTO3qB0-LfBWy4fT1-17" value="如果process==100，设置任务状态为完成，更新图搜Redis记录过期时间" style="rounded=0;whiteSpace=wrap;html=1;" parent="1" vertex="1">
          <mxGeometry x="370" y="355" width="120" height="60" as="geometry" />
        </mxCell>
        <mxCell id="lt9hTO3qB0-LfBWy4fT1-18" value="走FINISHED流程" style="rounded=0;whiteSpace=wrap;html=1;" parent="1" vertex="1">
          <mxGeometry x="520" y="365" width="120" height="40" as="geometry" />
        </mxCell>
        <mxCell id="lt9hTO3qB0-LfBWy4fT1-19" value="如果process!=100&lt;div&gt;任务状态为RUNNING，更新consumeTime和expectEndTime,&lt;/div&gt;&lt;div&gt;resultNum为0&lt;/div&gt;" style="rounded=0;whiteSpace=wrap;html=1;" parent="1" vertex="1">
          <mxGeometry x="370" y="430" width="150" height="80" as="geometry" />
        </mxCell>
        <mxCell id="lt9hTO3qB0-LfBWy4fT1-36" style="edgeStyle=orthogonalEdgeStyle;rounded=0;orthogonalLoop=1;jettySize=auto;html=1;exitX=1;exitY=0.5;exitDx=0;exitDy=0;entryX=0;entryY=0.5;entryDx=0;entryDy=0;" parent="1" source="lt9hTO3qB0-LfBWy4fT1-20" target="lt9hTO3qB0-LfBWy4fT1-21" edge="1">
          <mxGeometry relative="1" as="geometry" />
        </mxCell>
        <mxCell id="lt9hTO3qB0-LfBWy4fT1-37" style="edgeStyle=orthogonalEdgeStyle;rounded=0;orthogonalLoop=1;jettySize=auto;html=1;exitX=0.5;exitY=1;exitDx=0;exitDy=0;entryX=0.5;entryY=0;entryDx=0;entryDy=0;" parent="1" source="lt9hTO3qB0-LfBWy4fT1-20" target="lt9hTO3qB0-LfBWy4fT1-22" edge="1">
          <mxGeometry relative="1" as="geometry" />
        </mxCell>
        <mxCell id="lt9hTO3qB0-LfBWy4fT1-20" value="其它状态就是出错了" style="rounded=0;whiteSpace=wrap;html=1;" parent="1" vertex="1">
          <mxGeometry x="60" y="540" width="120" height="60" as="geometry" />
        </mxCell>
        <mxCell id="lt9hTO3qB0-LfBWy4fT1-21" value="设置状态为ERROR" style="rounded=0;whiteSpace=wrap;html=1;" parent="1" vertex="1">
          <mxGeometry x="230" y="550" width="120" height="40" as="geometry" />
        </mxCell>
        <mxCell id="lt9hTO3qB0-LfBWy4fT1-22" value="返回200以及result" style="ellipse;whiteSpace=wrap;html=1;" parent="1" vertex="1">
          <mxGeometry x="60" y="650" width="120" height="50" as="geometry" />
        </mxCell>
      </root>
    </mxGraphModel>
  </diagram>
</mxfile>
